PathFileType	4	(X/Y/Z)	C:\Users\Public\Documents\Vicon Data\AADs Machine\Fixing_spring_distance_56\90_lb_Spring\90_lb_Static.trc
DataRate	CameraRate	NumFrames	NumMarkers	Units	OrigDataRate	OrigDataStartFrame	OrigNumFrames
100.0	100.0	15	8	mm	100.0	262	314	
Frame#	Time	SpringTop			MMAL			LMAL			Shank			Heel			Foot			Toe			MP5			
		X1	Y1	Z1	X2	Y2	Z2	X3	Y3	Z3	X4	Y4	Z4	X5	Y5	Z5	X6	Y6	Z6	X7	Y7	Z7	X8	Y8	Z8	
262	2.61	-357.48059	144.45271	-609.90369	-289.28433	102.56043	-673.43225	-273.14615	111.11936	-552.27728	-220.84975	275.98126	-626.66559	-357.20346	85.40078	-608.22919	-178.7155	57.392986	-614.18048	-105.49839	38.929626	-630.26611	-165.30502	40.188992	-562.15863
263	2.62	-357.48108	144.42125	-609.90875	-289.26898	102.5273	-673.44464	-273.11606	111.1509	-552.27472	-220.87267	275.96494	-626.6936	-357.19153	85.373161	-608.34052	-178.70691	57.3834	-614.19543	-105.48218	38.908615	-630.27856	-165.28232	40.171509	-562.15485
264	2.63	-357.48053	144.4267	-609.89655	-289.26617	102.53754	-673.43738	-273.15295	111.13808	-552.28296	-220.86816	275.99551	-626.71936	-357.20941	85.380028	-608.30609	-178.72607	57.379642	-614.17444	-105.47748	38.929859	-630.28107	-165.29858	40.180691	-562.14655
265	2.64	-357.49414	144.45192	-609.91803	-289.28125	102.5608	-673.44995	-273.15521	111.17754	-552.27631	-220.89563	276.00937	-626.7356	-357.21207	85.441673	-608.20526	-178.72661	57.413719	-614.17108	-105.47466	38.932732	-630.27533	-165.29224	40.219456	-562.1413
266	2.65	-357.46277	144.41298	-609.94586	-289.2691	102.5177	-673.46558	-273.12067	111.16112	-552.29169	-220.89339	275.97278	-626.77087	-357.2229	85.374084	-608.32367	-178.71765	57.383995	-614.18744	-105.47681	38.921108	-630.29846	-165.29103	40.190334	-562.17871
267	2.66	-357.46204	144.42676	-609.92505	-289.28821	102.52	-673.46991	-273.15372	111.12418	-552.32556	-220.8855	275.96356	-626.79681	-357.20908	85.369316	-608.3313	-178.71718	57.378834	-614.19653	-105.4733	38.899818	-630.31586	-165.2912	40.185318	-562.16003
268	2.67	-357.48297	144.44595	-609.94714	-289.29376	102.54982	-673.47852	-273.14737	111.19938	-552.30823	-220.8835	276.00693	-626.82788	-357.25897	85.410599	-608.36407	-178.74356	57.409851	-614.17279	-105.48636	38.94558	-630.29163	-165.30353	40.226139	-562.1601
269	2.68	-357.44147	144.4249	-609.95673	-289.27621	102.53828	-673.48346	-273.14465	111.18395	-552.30402	-220.88153	275.99573	-626.84521	-357.24756	85.402184	-608.34991	-178.71701	57.396904	-614.19275	-105.49882	38.901951	-630.30328	-165.31172	40.210594	-562.15704
270	2.69	-357.44843	144.38191	-610.0213	-289.30991	102.48273	-673.48993	-273.12701	111.15906	-552.34558	-220.85867	275.96597	-626.91772	-357.20422	85.375404	-608.31854	-178.72115	57.357002	-614.2251	-105.50698	38.890396	-630.30133	-165.29997	40.187183	-562.17883
271	2.7	-357.46048	144.4153	-610.00452	-289.29477	102.49121	-673.49866	-273.14099	111.18276	-552.37762	-220.86504	275.97668	-626.94501	-357.19485	85.387604	-608.38239	-178.72777	57.376266	-614.2157	-105.51119	38.886383	-630.31409	-165.31383	40.213631	-562.17743
272	2.71	-357.44043	144.45972	-609.97491	-289.30588	102.53623	-673.52972	-273.14615	111.20906	-552.33954	-220.87827	275.98923	-626.93921	-357.22763	85.422707	-608.38129	-178.71597	57.406776	-614.20404	-105.49194	38.916733	-630.27368	-165.30499	40.231613	-562.16852
273	2.72	-357.44315	144.41458	-609.99457	-289.29163	102.53693	-673.54993	-273.11664	111.20137	-552.34827	-220.83093	275.98074	-626.99506	-357.19012	85.38253	-608.35345	-178.71851	57.385735	-614.21735	-105.5039	38.906723	-630.28516	-165.31207	40.207874	-562.18146
274	2.73	-357.46786	144.43239	-610.03363	-289.29623	102.49696	-673.55688	-273.1416	111.20058	-552.3941	-220.83044	275.94601	-627.03723	-357.21298	85.393745	-608.35852	-178.72733	57.376328	-614.22498	-105.49751	38.893429	-630.32275	-165.30376	40.201412	-562.1983
275	2.74	-357.42963	144.44617	-610.03027	-289.26114	102.54196	-673.57477	-273.10672	111.23018	-552.38843	-220.79623	275.9697	-627.04089	-357.20245	85.420265	-608.35577	-178.72893	57.401733	-614.23438	-105.49969	38.900845	-630.32135	-165.2831	40.236355	-562.20898
276	2.75	-357.45508	144.4557	-610.00372	-289.28937	102.53661	-673.54156	-273.10779	111.23077	-552.37	-220.78886	275.96201	-627.00507	-357.21158	85.426819	-608.35785	-178.72176	57.390926	-614.20508	-105.50059	38.913929	-630.29425	-165.30161	40.224434	-562.16028
